<?xml version="1.0" encoding="UTF-8"?>
<svg id="Livello_1" data-name="Livello 1" xmlns="http://www.w3.org/2000/svg" version="1.1" viewBox="0 0 2500 469">
  <defs>
    <style>
      .cls-1 {
        fill: #00b67a;
      }

      .cls-1, .cls-2 {
        stroke-width: 0px;
      }

      .cls-2 {
        fill: #fff;
      }
    </style>
  </defs>
  <path class="cls-1" d="M0,.1h468.8v468.8H0V.1ZM507.8.1h468.8v468.8h-468.8V.1ZM1015.6.1h468.8v468.8h-468.8V.1ZM1523.4.1h468.8v468.8h-468.8V.1ZM2031.2.1h468.8v468.8h-468.8V.1Z"/>
  <path class="cls-2" d="M234.4,316l71.3-18.1,29.8,91.8-101.1-73.7ZM398.4,197.4h-125.5l-38.6-118.2-38.6,118.2h-125.5l101.6,73.2-38.6,118.2,101.6-73.2,62.5-44.9,101.1-73.2ZM742.2,316l71.3-18.1,29.8,91.8-101.1-73.7ZM906.3,197.4h-125.5l-38.6-118.2-38.6,118.2h-125.5l101.6,73.2-38.6,118.2,101.6-73.2,62.5-44.9,101.1-73.2ZM1250,316l71.3-18.1,29.8,91.8-101.1-73.7ZM1414.1,197.4h-125.5l-38.6-118.2-38.6,118.2h-125.5l101.6,73.2-38.6,118.2,101.6-73.2,62.5-44.9,101.1-73.2ZM1757.8,316l71.3-18.1,29.8,91.8-101.1-73.7ZM1921.9,197.4h-125.5l-38.6-118.2-38.6,118.2h-125.5l101.6,73.2-38.6,118.2,101.6-73.2,62.5-44.9,101.1-73.2ZM2265.6,316l71.3-18.1,29.8,91.8-101.1-73.7ZM2429.7,197.4h-125.5l-38.6-118.2-38.6,118.2h-125.5l101.6,73.2-38.6,118.2,101.6-73.2,62.5-44.9,101.1-73.2Z"/>
</svg>